<?xml version="1.0" encoding="UTF-8" standalone="no"?>
<!--part of the matt icon theme by sixsixfive released under CC0 (https://creativecommons.org/publicdomain/zero/1.0/) on openclipart-->
<svg xmlns="http://www.w3.org/2000/svg" viewBox="0 0 128 128">
 <text x="-828.23" y="-458.93" id="0" font-size="28"><tspan x="-828.23" y="-458.93" id="5"/>
 </text>
 <text x="-828.23" y="-458.93" id="1" font-size="28"><tspan x="-828.23" y="-458.93" id="6"/>
 </text>
 <text x="1632.44" y="-609.18" id="2" font-size="28"><tspan x="1632.44" y="-609.18" id="7"/>
 </text>
 <text x="1632.44" y="-609.18" id="3" font-size="28"><tspan x="1632.44" y="-609.18" id="8"/>
 </text>
 <path d="m 93.592579,24.000002 c -0.22761,0.128324 -0.41998,0.368862 -0.54606,0.682792 -0.17607,0.301261 -0.27251,0.690092 -0.27085,1.092114 l 0,10.238441 -16.38177,0.546054 c -1.63191,-7.01e-4 -3.19951,0.636214 -4.36848,1.774923 L 55.916673,54.988962 43.220574,41.746894 C 42.06413,40.474374 40.43495,39.733886 38.715803,39.699387 l -18.566017,0 -6.279681,0 0,12.695571 6.279681,0 15.972015,0 11.19422,11.604073 -11.19422,11.603668 -15.972015,0 -6.279681,0 0,12.559362 6.279681,0 18.566017,0 c 1.698783,9.04e-4 3.324908,-0.688996 4.504771,-1.911206 l 12.832395,-13.241717 15.97245,16.518076 c 1.14681,1.188706 2.71713,1.875728 4.36848,1.911206 l 16.38177,0.546053 0,10.238697 c -0.0017,0.40203 0.09478,0.79088 0.27085,1.09213 0.07338,0.16019 0.16509,0.29928 0.27085,0.41064 0.08074,0.1104 0.17206,0.2017 0.27085,0.27085 0.04509,0.004 0.09033,0.004 0.13544,0 0.19484,-0.0141 0.38353,-0.10771 0.54605,-0.27085 l 9.556031,-8.327626 c 0.0473,-0.03996 0.0926,-0.08522 0.13544,-0.135434 l 9.55605,-8.463794 c 0.0988,-0.06915 0.19009,-0.160451 0.27085,-0.27085 0.11469,-0.151153 0.20699,-0.33723 0.27083,-0.546054 0.15635,-0.619776 0.0493,-1.320967 -0.27083,-1.77448 -0.12287,-0.132667 -0.26276,-0.224931 -0.41064,-0.270832 l -9.55607,-8.327622 -9.556031,-8.327235 c -0.04284,-0.05022 -0.08811,-0.09547 -0.13543,-0.135434 -0.17903,-0.07068 -0.36705,-0.07068 -0.54608,0 -0.14788,0.04592 -0.28776,0.138183 -0.41063,0.27085 -0.2751,0.32758 -0.42813,0.836385 -0.41064,1.365152 l 0,10.648194 -13.51518,-0.27085 -14.60687,-15.153477 14.60687,-15.153034 13.51518,-0.41062 0,10.784439 c -0.01648,0.76973 0.32481,1.452324 0.8191,1.638272 0.23113,0.0685 0.47074,0.02094 0.68235,-0.135434 l 9.556031,-8.327254 9.55603,-8.32753 c 0.55951,-0.286088 0.8634,-1.198373 0.68236,-2.048374 -0.10941,-0.365069 -0.30375,-0.656582 -0.54606,-0.819099 l -9.55603,-8.463868 c -0.0428,-0.05022 -0.0881,-0.09549 -0.13543,-0.135434 l -9.556031,-8.327196 c -0.04284,-0.05021 -0.08811,-0.09548 -0.13544,-0.13542 -0.12969,-0.08534 -0.2692,-0.131351 -0.41063,-0.135419 -0.04509,-0.0043 -0.09033,-0.0043 -0.13544,0 l 0.0092,-0.01048 z" id="4" fill="#616161"/>
</svg>
